<svg width="16" height="22" viewBox="0 0 16 22" fill="none" xmlns="http://www.w3.org/2000/svg">
<path d="M0 8.55556H1.23077V0H10.4615C13.5385 0 16 2.44444 16 5.5C16 8.55556 13.5385 11 10.4615 11H3.69231V13.4444H11.0769V15.8889H3.69231V22H1.23077V15.8889H0V13.4444H1.23077V11H0V8.55556ZM10.4615 2.44444H3.69231V8.55556H10.4615C11.2776 8.55556 12.0602 8.23363 12.6373 7.6606C13.2143 7.08758 13.5385 6.31038 13.5385 5.5C13.5385 4.68962 13.2143 3.91242 12.6373 3.3394C12.0602 2.76637 11.2776 2.44444 10.4615 2.44444Z" fill="black"/>
</svg>
