<svg width="14" height="14" viewBox="0 0 14 14" fill="none" xmlns="http://www.w3.org/2000/svg">
<path fill-rule="evenodd" clip-rule="evenodd" d="M5.6667 11C2.72119 11 0.333374 8.6122 0.333374 5.66668C0.333374 2.72116 2.72119 0.333344 5.6667 0.333344C8.61222 0.333344 11 2.72116 11 5.66668C11 6.89915 10.702 8.09688 10 9L13.4714 12.5286L12.5286 13.4714L8.93714 9.87991C8.03402 10.582 6.89918 11 5.6667 11ZM9.6667 5.66668C9.6667 7.87582 7.87584 9.66668 5.6667 9.66668C3.45756 9.66668 1.66671 7.87582 1.66671 5.66668C1.66671 3.45754 3.45756 1.66668 5.6667 1.66668C7.87584 1.66668 9.6667 3.45754 9.6667 5.66668Z" fill="black"/>
</svg>
